<svg id="Layer_1" data-name="Layer 1" xmlns="http://www.w3.org/2000/svg" viewBox="0 0 128 128"><defs><style>.cls-1{fill:#ffc629;}</style></defs><title>Icon_1</title><path id="Icon" class="cls-1" d="M113.38,77.4c-.32,1.53-2.55,1.58-2.67,3.92,0,.8,2,5.4.11,5.76s-6.26-2.61-8.39-6.55a38.93,38.93,0,0,1-3.23-7.11c4.78-2.1,6.91-2.74,11.13-.61,2.31,1.17,3.37,3.06,3,4.59M97.62,99.15c.65,1.34,1.32,4.07,0,5-2,1.42-4.91-1.2-6.72.48-2.18,2-1.07,3.79-4.44,4.28-1.61.23-3.85-2.88-4.57-5.79-1.11-4.45-.32-8.59,2.41-14.42,3.59,1.64,9.82,3.24,13.32,10.43M76.93,28c-.46-2.05-.45-4.39,1-4.66,2.73-.51,3.87,3.46,6.12,4.38,1.39.56,5.23,0,5.83,3.4a3.43,3.43,0,0,1-2.3,3.27,18.89,18.89,0,0,1-6.92,1S77.38,30,76.93,28M59.51,107.71c-4,1.05-5.76-4.49-7.71-5.54-2.32-1.24-5.74,1.89-9.07-1.92-1.68-1.9-.27-6.63,3.59-9.88,3.34-2.87,12.17-4.22,12.17-4.22A31.92,31.92,0,0,1,63,96.88c1.09,4.24-1.14,10.21-3.52,10.83M46.09,21.19c-.69-1.31-.72-2.14-.35-2.65,1-1.31,5.76,1.33,7,1,2-.56,1.32-1.43,3.05-1.78a3.88,3.88,0,0,1,3.66,1.33c4.55,5.6-.33,10.25-1,11.27-6-2.51-10.41-5.48-12.32-9.15m-15.69,56c-3.06,1.53-6.72,2.24-9,0s.44-5.92-.14-8S14.87,65,16.63,61.81c1.5-2.73,6.05-2.93,10.19-2.21,5.17.89,9.55,4.07,12.44,5.93-2.07,5.12-3.75,9.12-8.86,11.66M29.28,43c-3.73-.42-9.63-2.77-9.66-5.34,0-2.91,4.48-1.94,5.76-4.4.79-1.52-1-3.61,1-5.06,1.79-1.3,6.55,1.06,9.24,4,2.2,2.37,3.16,4.8,4.54,9.42C37.68,42.2,33,43.41,29.28,43m72.14,1.3c5.11,0,3.59,5.07,4.55,6.55.74,1.13,5.19,4.29,3.61,5.52-3.16,2.47-11-2.73-13-4.38.22-2.82,1.68-7.69,4.89-7.69M115.65,69c-3.26-3-9.32-5.06-13.52-4-3.63.93-5.81,2.16-9.68-3.64,1.84-4.13,5.81-.72,8.53.45a15.67,15.67,0,0,0,7.84,1.66c7.91-.56,8.1-6.61,6.64-10.28a14.51,14.51,0,0,0-3.39-4.8,12.34,12.34,0,0,0-7.64-9.66c-5.7-2.16-11.6,1.32-12.87,5.56-.91,3-1.69,4.22-6.45,2.1-1.11-3.11-.9-4.64,1.31-5,6.86-1,8.52-4.34,9.23-5.95C96.78,32.9,97.32,25,86.42,21.84c-8-8.24-14.08-3.76-15.44-.92-4.24,8.86,6.27,15.18-.89,16.93-2.41-1.46-3.4-2.7-3.88-4.58-.84-3.29,5.63-6.51-.84-16.61-2.7-4.2-9.49-7-14.8-4.26-7-1.79-10.09,1.18-10.09,1.18s-6,5.07,2.31,14.18C49.67,35.31,55.52,33.43,54,40.37c-9.76.55-7-8.3-15.79-14.79C28,18,18.46,20.92,17.46,29c0,0-8,3.52-5.32,10.82,3.09,8.36,16.28,10.34,18.26,10.36,6.73,0,11.72-3.46,16,4.27C40,61.93,37.25,52,22.6,52c-5.74,0-11,2.2-13.51,6.54-2.35,4-.7,9.59,3.05,13a11.59,11.59,0,0,0,3.53,11.17c5.73,5.16,15.2,4.86,22.59-1.08,7.55-6.06,5-13.79,15.49-9.78,2.69,10-5,6.12-13.27,13.05-6.09,5.08-7.06,11.46-6.32,15.51,1.33,7.29,9.1,10.52,13.89,10.08.62,1,6.2,7.42,13.72,5,6.52-2.13,10-9.81,8.88-18.52-1-7.37-6.86-12.21.62-16,7.81,5.14,3.64,9.18,2.86,15a21.56,21.56,0,0,0,4.51,16.47c6.72,7.44,13.81,4,16.6,0,0,0,7.26.79,9.46-5.57,1.73-5-.28-10.53-3.79-15a29.1,29.1,0,0,0-4.41-4.53C93.85,85,86,83.25,87.56,76c3.38-.51,5.66.56,8.62,6.65,3.14,6.48,9.2,10.27,12.64,11.16s11,0,9.29-10.35c2.13-2.61,3.71-8.78-2.46-14.5"/></svg>